<svg xmlns="http://www.w3.org/2000/svg" viewBox="0 0 256 256">
  <defs>
    <radialGradient id="g" cx="50%" cy="35%" r="65%">
      <stop offset="0%" stop-color="#ff4d4d"/>
      <stop offset="55%" stop-color="#d11717"/>
      <stop offset="100%" stop-color="#7a0a0a"/>
    </radialGradient>
    <filter id="shadow" x="-20%" y="-20%" width="140%" height="140%">
      <feDropShadow dx="0" dy="6" stdDeviation="6" flood-color="#000" flood-opacity="0.45"/>
    </filter>
    <linearGradient id="shine" x1="0" x2="0" y1="0" y2="1">
      <stop offset="0%" stop-color="rgba(255,255,255,0.9)"/>
      <stop offset="100%" stop-color="rgba(255,255,255,0)"/>
    </linearGradient>
  </defs>

  <!-- Blood drop -->
  <g filter="url(#shadow)">
    <path d="M128 16 C118 36 92 72 76 98 C58 127 48 147 48 170 C48 205 75 232 112 236 C149 240 184 216 188 178 C191 151 180 132 162 104 C147 81 133 56 128 16 Z"
          fill="url(#g)"/>
    <!-- subtle inner highlight -->
    <ellipse cx="108" cy="98" rx="26" ry="36" fill="url(#shine)" opacity="0.35" transform="rotate(-18 108 98)"/>
  </g>

  <!-- ground reflection -->
  <ellipse cx="132" cy="226" rx="52" ry="10" fill="#2a0000" opacity="0.45"/>
</svg>
